<svg width="24" height="29" viewBox="0 0 24 29" fill="none" xmlns="http://www.w3.org/2000/svg">
<mask id="mask0_13_28" style="mask-type:alpha" maskUnits="userSpaceOnUse" x="1" y="1" width="22" height="27">
<path d="M16.7284 27.0069C16.6027 27.0069 16.4827 26.9929 16.3727 26.9649C13.1244 26.1425 9.65896 22.9811 6.05655 17.5643C2.4567 12.1507 0.97882 7.8805 1.66489 4.87134C1.98529 3.46956 6.12133 1.93744 6.16229 1.92261C7.17595 1.55781 8.31218 1.92846 8.63976 2.67076C8.82188 3.07843 10.4777 7.29759 10.6527 7.77256C10.8545 8.31713 10.6315 9.00122 10.0528 9.60128C9.7761 9.8889 8.89251 10.751 8.41668 11.212C8.66512 11.7752 9.2819 13.0284 10.6104 15.0213C11.9372 17.0167 12.8691 18.0937 13.3023 18.5543C13.9672 18.3793 15.2079 18.054 15.6146 17.9606C16.4333 17.772 17.2124 17.8965 17.6558 18.3061C18.0638 18.6798 21.3824 21.9697 21.6846 22.2842C21.9343 22.5449 22.0643 22.9191 22.0374 23.311C22.0022 23.8075 21.7325 24.2829 21.2767 24.6501C21.2484 24.6728 18.2418 27.0069 16.7284 27.0069ZM7.00645 3.09639C6.90626 3.09639 6.79888 3.11616 6.68739 3.15662C5.48751 3.58467 3.29245 4.71235 3.07368 5.15724C2.32119 8.46664 4.95111 13.3577 7.29021 16.8753C9.6293 20.3921 13.1654 24.7735 16.734 25.6827C17.3609 25.6731 19.4882 24.3299 20.3208 23.6561C20.6075 23.4267 20.6147 23.1983 20.585 23.1409C20.3477 22.8965 17.0317 19.6069 16.631 19.2398C16.6084 19.225 16.2964 19.1704 15.966 19.2458C15.4099 19.3729 13.2728 19.9401 13.2713 19.9408L12.8691 20.0474L12.5683 19.7805C12.5204 19.7375 11.3614 18.6966 9.37655 15.7112C7.38886 12.7283 6.91047 11.306 6.89209 11.2463L6.77075 10.8798L7.05871 10.6008C7.06004 10.6002 8.59028 9.11946 8.96858 8.72651C9.22133 8.46331 9.28908 8.246 9.28056 8.18709C9.11682 7.74663 7.47232 3.55148 7.30006 3.17013C7.29441 3.16771 7.19689 3.09639 7.00645 3.09639Z" fill="black"/>
<path fill-rule="evenodd" clip-rule="evenodd" d="M16.7284 27.0069C16.6027 27.0069 16.4827 26.9929 16.3727 26.9649C13.1244 26.1425 9.65896 22.9811 6.05655 17.5643C2.4567 12.1507 0.97882 7.8805 1.66489 4.87134C1.98529 3.46956 6.12133 1.93744 6.16229 1.92261C7.17595 1.55781 8.31218 1.92846 8.63976 2.67076C8.82188 3.07843 10.4777 7.29759 10.6527 7.77256C10.8545 8.31713 10.6315 9.00122 10.0528 9.60128C9.7761 9.8889 8.89251 10.751 8.41668 11.212C8.66512 11.7752 9.2819 13.0284 10.6104 15.0213C11.9372 17.0167 12.8691 18.0937 13.3023 18.5543C13.9672 18.3793 15.2079 18.054 15.6146 17.9606C16.4333 17.772 17.2124 17.8965 17.6558 18.3061C18.0638 18.6798 21.3824 21.9697 21.6846 22.2842C21.9343 22.5449 22.0643 22.9191 22.0374 23.311C22.0022 23.8075 21.7325 24.2829 21.2767 24.6501C21.2484 24.6728 18.2418 27.0069 16.7284 27.0069ZM7.00645 3.09639C6.90626 3.09639 6.79888 3.11616 6.68739 3.15662C5.48751 3.58467 3.29245 4.71235 3.07368 5.15724C2.32119 8.46664 4.95111 13.3577 7.29021 16.8753C9.6293 20.3921 13.1654 24.7735 16.734 25.6827C17.3609 25.6731 19.4882 24.3299 20.3208 23.6561C20.6075 23.4267 20.6147 23.1983 20.585 23.1409C20.3477 22.8965 17.0317 19.6069 16.631 19.2398C16.6084 19.225 16.2964 19.1704 15.966 19.2458C15.4099 19.3729 13.2728 19.9401 13.2713 19.9408L12.8691 20.0474L12.5683 19.7805C12.5204 19.7375 11.3614 18.6966 9.37655 15.7112C7.38886 12.7283 6.91047 11.306 6.89209 11.2463L6.77075 10.8798L7.05871 10.6008C7.06004 10.6002 8.59028 9.11946 8.96858 8.72651C9.22133 8.46331 9.28908 8.246 9.28056 8.18709C9.11682 7.74663 7.47232 3.55148 7.30006 3.17013C7.29441 3.16771 7.19689 3.09639 7.00645 3.09639Z" fill="black"/>
</mask>
<g mask="url(#mask0_13_28)">
<rect width="29" height="29" transform="translate(-2)" fill="$magenta"/>
</g>
</svg>
